<svg width="24" height="24" viewBox="0 0 24 24" fill="none" xmlns="http://www.w3.org/2000/svg">
    <g clip-path="url(#clip0_2449_76775)">
        <path fill-rule="evenodd" clip-rule="evenodd" d="M4.69422 2.36642C6.77893 0.830053 9.31069 0 11.9121 0C14.5135 0 17.0453 0.830053 19.1299 2.36642C21.0936 3.8135 22.5614 5.81416 23.3435 8.09934C23.4397 8.38023 23.4804 8.67643 23.4804 8.97332C23.4804 9.20616 23.4535 9.43944 23.4007 9.6662C23.3206 10.0097 23.1816 10.3386 22.9904 10.635L22.9809 10.6499C22.7734 10.9718 22.5094 11.2535 22.2017 11.4814L21.2681 12.1727L19.5192 13.4676L19.6151 12.7114C19.6677 12.2956 19.6808 11.8758 19.6544 11.4576C19.6227 10.9575 19.5346 10.4626 19.3916 9.98233L19.3207 9.74391C18.8469 8.16696 17.8696 6.7834 16.5345 5.79949C15.1995 4.81557 13.5781 4.28398 11.9121 4.28398C10.2461 4.28398 8.62473 4.81557 7.28968 5.79949C5.9546 6.7834 4.97734 8.16696 4.50357 9.74391L4.43259 9.98233C4.28964 10.4626 4.20148 10.9575 4.16983 11.4576C4.14336 11.8758 4.15652 12.2956 4.20917 12.7114L4.30491 13.4676L2.55614 12.1727L1.62256 11.4814C1.3148 11.2535 1.05081 10.9718 0.84334 10.6499L0.833771 10.635C0.642705 10.3386 0.503676 10.0097 0.423596 9.6662C0.370725 9.43944 0.34375 9.20616 0.34375 8.97332C0.34375 8.67643 0.384538 8.38023 0.480678 8.09934C1.26284 5.81416 2.73071 3.8135 4.69422 2.36642Z" fill="url(#paint0_linear_2449_76775)"/>
        <path fill-rule="evenodd" clip-rule="evenodd" d="M0.612699 15.6852C0.075915 14.0767 -0.111331 12.3722 0.0634795 10.6855C0.251111 10.9285 0.456696 11.157 0.678504 11.3691L2.33094 12.9497C2.61811 13.1731 2.87815 13.3659 3.13678 13.5578C3.57793 13.885 4.01498 14.2092 4.57554 14.6763C5.09353 15.108 6.4964 16.144 7.68345 17.0073C8.31006 17.4629 8.7803 17.8224 9.22434 18.1619C9.6215 18.4656 9.99769 18.7531 10.446 19.0792C10.5962 19.1623 10.7092 19.2303 10.8017 19.2861C11.1601 19.5022 11.2087 19.5314 11.9137 19.5154V19.5109C11.9434 19.5117 11.9722 19.5124 12 19.5131C12.0278 19.5124 12.0566 19.5117 12.0863 19.5109V19.5154C12.7913 19.5314 12.8399 19.5022 13.1983 19.2861C13.2908 19.2303 13.4038 19.1623 13.554 19.0792C14.0023 18.7531 14.3785 18.4656 14.7757 18.1619C15.2197 17.8224 15.6899 17.4629 16.3165 17.0073C17.5036 16.144 18.9065 15.108 19.4245 14.6763C19.9851 14.2092 20.4221 13.885 20.8633 13.5578C21.1219 13.3659 21.3819 13.1731 21.6691 12.9497L23.3214 11.3691C23.5433 11.157 23.749 10.9285 23.9365 10.6855C24.1114 12.3722 23.924 14.0767 23.3872 15.6852C22.8506 17.2937 21.9766 18.7689 20.8239 20.0126C19.6712 21.2561 18.2662 22.2394 16.7031 22.8966C15.1665 23.5425 13.6608 23.863 12 23.8295C10.3392 23.863 8.83352 23.5425 7.29693 22.8966C5.73376 22.2394 4.32886 21.2561 3.17615 20.0126C2.02344 18.7689 1.14948 17.2937 0.612699 15.6852Z" fill="url(#paint1_linear_2449_76775)"/>
    </g>
    <defs>
        <linearGradient id="paint0_linear_2449_76775" x1="11.912" y1="11.6966" x2="11.912" y2="-0.0784601" gradientUnits="userSpaceOnUse">
            <stop stop-color="#1E43A0"/>
            <stop offset="1" stop-color="#0090FF"/>
        </linearGradient>
        <linearGradient id="paint1_linear_2449_76775" x1="11.9999" y1="23.8319" x2="11.9999" y2="12.2029" gradientUnits="userSpaceOnUse">
            <stop stop-color="#00E5FF"/>
            <stop offset="1" stop-color="#0090FF"/>
        </linearGradient>
        <clipPath id="clip0_2449_76775">
            <rect width="24" height="24" fill="white"/>
        </clipPath>
    </defs>
</svg>
