<svg width="92" height="29" viewBox="0 0 92 29" fill="none" xmlns="http://www.w3.org/2000/svg">
    <path fill-rule="evenodd" clip-rule="evenodd" d="M38.0781 5.31756C37.0557 5.44752 36.2046 5.98055 35.7587 7.02625V5.96685C35.7587 5.65265 35.5837 5.47834 35.2714 5.47834H33.5936C33.2781 5.47834 33.103 5.65248 33.103 5.96685V15.2437C33.103 15.5546 33.2781 15.7289 33.5936 15.7289H35.2714C35.5837 15.7289 35.7587 15.5546 35.7587 15.2437V10.6753C35.7587 8.84709 36.9525 8.19129 38.2051 8.19471C38.4452 8.19471 38.5791 8.03068 38.5791 7.72315V5.78587C38.5791 5.47509 38.4041 5.26995 38.0746 5.32115L38.0781 5.31756ZM33.2822 22.4038H33.965C34.0635 22.4038 34.1441 22.4841 34.1441 22.5822V23.2621C34.1441 23.3604 34.0637 23.4407 33.965 23.4407H33.2822C33.1835 23.4407 33.103 23.3604 33.103 23.2621V22.5822C33.103 22.4841 33.1835 22.4038 33.2822 22.4038ZM38.1986 19.4165H37.8033H36.1619V19.3763C36.1619 18.8338 36.4807 18.697 37.0161 18.697C37.2462 18.697 37.5005 18.7105 37.7643 18.7373C37.8893 18.7534 37.9661 18.6825 37.9661 18.5604V17.983C37.9661 17.8691 37.9123 17.794 37.7966 17.7768C37.5289 17.7244 37.272 17.7005 37.0163 17.7005C35.7384 17.7005 35.1208 18.2712 35.1208 19.3763V19.4165H34.7362C34.6124 19.4165 34.5437 19.4847 34.5437 19.6066V20.2216C34.5437 20.3447 34.6124 20.4132 34.7362 20.4132H35.1208V23.2438C35.1208 23.3671 35.1894 23.4353 35.3132 23.4353H35.9711C36.0935 23.4353 36.1621 23.3671 36.1621 23.2438V20.4132H37.3487V23.2438C37.3487 23.3671 37.4173 23.4353 37.5411 23.4353H38.1989C38.3214 23.4353 38.39 23.3671 38.39 23.2438V19.6066C38.3898 19.4847 38.321 19.4165 38.1986 19.4165ZM41.3022 19.308C40.7991 19.308 40.4291 19.49 40.2033 19.8292V19.6066C40.2033 19.4847 40.1347 19.4165 40.0121 19.4165H39.3542C39.2304 19.4165 39.1618 19.4847 39.1618 19.6066V23.2438C39.1618 23.3671 39.2304 23.4353 39.3542 23.4353H40.0121C40.1345 23.4353 40.2033 23.3671 40.2033 23.2438V21.1083C40.2033 20.5028 40.5221 20.2684 40.9323 20.2684C41.2969 20.2684 41.5713 20.4855 41.5713 20.9449V23.2438C41.5713 23.3671 41.6399 23.4353 41.7637 23.4353H42.4216C42.544 23.4353 42.6124 23.3671 42.6124 23.2438V20.8672C42.6124 19.8826 42.0515 19.308 41.3008 19.308H41.3022ZM44.8995 19.308C44.0721 19.308 43.3659 19.7619 43.2649 20.5831C43.257 20.7146 43.3336 20.7828 43.4575 20.7828H44.103C44.2175 20.7828 44.2607 20.7199 44.3023 20.6114C44.3709 20.3942 44.5955 20.2684 44.8996 20.2684C45.2829 20.2684 45.5252 20.4665 45.5252 20.9435V21.3721C45.2923 21.1687 44.9426 21.016 44.4314 21.016C43.713 21.016 43.0713 21.4351 43.0713 22.2791C43.0713 23.1233 43.713 23.5438 44.4314 23.5438C44.9426 23.5438 45.2923 23.3697 45.5252 23.0871V23.2452C45.5252 23.3671 45.5938 23.4353 45.7176 23.4353H46.3512C46.4736 23.4353 46.5422 23.3671 46.5422 23.2452V20.8833C46.5419 19.8371 45.7913 19.308 44.8995 19.308ZM44.7849 22.7803C44.3264 22.7803 44.1123 22.5699 44.1123 22.2807C44.1123 21.9913 44.3264 21.7796 44.7849 21.7796C45.2423 21.7796 45.5248 21.9711 45.5248 22.2807C45.525 22.57 45.2425 22.7803 44.7849 22.7803ZM49.3575 19.308C48.8542 19.308 48.4843 19.49 48.2584 19.8292V19.6066C48.2584 19.4847 48.1898 19.4165 48.0674 19.4165H47.4095C47.2857 19.4165 47.2173 19.4847 47.2173 19.6066V23.2438C47.2173 23.3671 47.2857 23.4353 47.4095 23.4353H48.0674C48.1898 23.4353 48.2584 23.3671 48.2584 23.2438V21.1083C48.2584 20.5028 48.5772 20.2684 48.9874 20.2684C49.352 20.2684 49.6265 20.4855 49.6265 20.9449V23.2438C49.6265 23.3671 49.695 23.4353 49.8188 23.4353H50.4766C50.5991 23.4353 50.6675 23.3671 50.6675 23.2438V20.8672C50.6675 19.8826 50.1064 19.308 49.3559 19.308H49.3575ZM55.06 21.9685H54.3349C54.2285 21.9685 54.164 22.0141 54.1047 22.1065C53.9379 22.3637 53.6273 22.5231 53.2613 22.5231C52.6437 22.5231 52.1675 22.0649 52.1675 21.4262C52.1675 20.787 52.6438 20.329 53.2613 20.329C53.6244 20.329 53.9353 20.4857 54.1047 20.7509C54.164 20.8367 54.2338 20.8834 54.3349 20.8834H55.06C55.1905 20.8834 55.267 20.7992 55.2187 20.6677C54.9591 19.8627 54.1841 19.3081 53.2613 19.3081C52.037 19.3081 51.1264 20.2299 51.1264 21.4262C51.1264 22.6211 52.037 23.544 53.2613 23.544C54.1841 23.544 54.9604 22.9894 55.2187 22.1831C55.267 22.0528 55.1905 21.9685 55.06 21.9685ZM57.6603 19.308C56.3917 19.308 55.5215 20.2322 55.5215 21.4261C55.5215 22.6277 56.3716 23.5438 57.6847 23.5438C58.5078 23.5438 59.1698 23.1661 59.4752 22.4882C59.533 22.3676 59.4563 22.2791 59.3177 22.2791L58.672 22.286C58.5711 22.286 58.5078 22.326 58.4351 22.3916C58.2766 22.5646 58.0033 22.6851 57.6993 22.6851C57.1828 22.6851 56.7469 22.4252 56.6056 21.8531H58.6251H59.459C59.5734 21.8531 59.6501 21.7997 59.6648 21.6764C59.6702 21.5961 59.677 21.5158 59.677 21.43C59.677 20.2444 58.8534 19.308 57.6603 19.308ZM56.6003 21.0374C56.7241 20.5352 57.102 20.2377 57.6548 20.2377C58.0907 20.2377 58.5161 20.4641 58.6356 21.0374H56.6003ZM44.1854 5.20163C40.9497 5.20163 38.7297 7.55928 38.7297 10.6036C38.7297 13.6685 40.8983 16.0055 44.2469 16.0055C46.3469 16.0055 48.035 15.042 48.8139 13.3131C48.9615 13.0057 48.766 12.7802 48.4124 12.7802L46.7656 12.7973C46.5082 12.7973 46.3469 12.8999 46.1617 13.0672C45.7568 13.5079 45.0602 13.8155 44.2847 13.8155C42.9673 13.8155 41.8555 13.1526 41.4953 11.6936H46.6454H48.7727C49.0643 11.6936 49.26 11.5568 49.2978 11.2426C49.3117 11.0376 49.3287 10.8327 49.3287 10.614C49.3286 7.58993 47.2286 5.20163 44.1854 5.20163ZM41.4815 9.61266C41.7972 8.33135 42.7613 7.57298 44.1716 7.57298C45.2834 7.57298 46.3677 8.15036 46.6731 9.61266H41.4815ZM55.4223 5.47851H54.1389V2.68338C54.1389 2.3726 53.9639 2.19828 53.6516 2.19828H51.9738C51.6582 2.19828 51.483 2.3726 51.483 2.68338V5.47851H50.1964C49.8843 5.47851 49.7093 5.65265 49.7093 5.9636V7.53189C49.7093 7.84609 49.8843 8.02057 50.1964 8.02057H51.483V15.2404C51.483 15.5548 51.6582 15.7291 51.9738 15.7291H53.6516C53.9639 15.7291 54.1389 15.5548 54.1389 15.2404V8.02057H55.4223C55.7344 8.02057 55.9094 7.84609 55.9094 7.53189V5.9636C55.9094 5.65265 55.7344 5.47851 55.4223 5.47851ZM62.473 5.20163C61.1898 5.20163 60.2464 5.66618 59.6697 6.53071V1.86336C59.6697 1.55258 59.4946 1.3781 59.1825 1.3781H57.5045C57.189 1.3781 57.014 1.55258 57.014 1.86336V15.2404C57.014 15.5548 57.189 15.7291 57.5045 15.7291H59.1825C59.4946 15.7291 59.6697 15.5548 59.6697 15.2404V9.79381C59.6697 8.24933 60.4828 7.6514 61.5294 7.6514C62.4591 7.6514 63.1591 8.20498 63.1591 9.37687V15.2403C63.1591 15.5546 63.3343 15.7289 63.6498 15.7289H65.3277C65.6399 15.7289 65.8148 15.5546 65.8148 15.2403V9.17859C65.8148 6.66718 64.3842 5.20146 62.4696 5.20146H62.473V5.20163ZM68.0139 4.04328H69.6918C70.0075 4.04328 70.1825 3.86896 70.1825 3.55459V1.86336C70.1825 1.55258 70.0075 1.3781 69.6918 1.3781H68.0139C67.7019 1.3781 67.5268 1.55258 67.5268 1.86336V3.55459C67.5268 3.86896 67.7019 4.04328 68.0139 4.04328ZM68.0139 15.7291H69.6918C70.0075 15.7291 70.1825 15.5548 70.1825 15.2404V5.9636C70.1825 5.65265 70.0075 5.47851 69.6918 5.47851H68.0139C67.7019 5.47851 67.5268 5.65265 67.5268 5.9636V15.2404C67.5268 15.5548 67.7019 15.7291 68.0139 15.7291ZM77.6244 5.20163C76.3412 5.20163 75.3976 5.66618 74.8214 6.53071V5.9636C74.8214 5.65265 74.6462 5.47851 74.3339 5.47851H72.6561C72.3404 5.47851 72.1654 5.65265 72.1654 5.9636V15.2404C72.1654 15.5548 72.3404 15.7291 72.6561 15.7291H74.3339C74.6462 15.7291 74.8214 15.5548 74.8214 15.2404V9.79381C74.8214 8.24933 75.6343 7.6514 76.6808 7.6514C77.6107 7.6514 78.3107 8.20498 78.3107 9.37687V15.2403C78.3107 15.5546 78.4857 15.7289 78.8014 15.7289H80.4792C80.7915 15.7289 80.9663 15.5546 80.9663 15.2403V9.17859C80.9663 6.66718 79.5356 5.20146 77.621 5.20146H77.6244V5.20163ZM91.5409 15.1379L87.8902 10.5524L91.3592 6.066C91.603 5.73792 91.4691 5.47834 91.0676 5.47834H89.0947C88.844 5.47834 88.6521 5.57063 88.508 5.77542L85.3341 9.9849V1.86319C85.3341 1.55241 85.159 1.37793 84.8434 1.37793H83.1655C82.8533 1.37793 82.6784 1.55241 82.6784 1.86319V15.2403C82.6784 15.5546 82.8533 15.7289 83.1655 15.7289H84.8434C85.159 15.7289 85.3341 15.5546 85.3341 15.2403V11.0993L88.7136 15.4319C88.8577 15.6368 89.05 15.7291 89.3005 15.7291H91.2562C91.6577 15.7291 91.7915 15.4625 91.5409 15.1379Z" fill="white"/>
    <path fill-rule="evenodd" clip-rule="evenodd" d="M13.607 5.0536C8.79198 5.0536 4.88887 9.09494 4.88887 14.0805C4.88887 14.7393 4.95763 15.3814 5.08701 16L2.21911 13.8008C1.25943 13.0651 0.606934 11.9108 0.606934 10.5801C0.606934 10.1314 0.679583 9.70023 0.813028 9.29834C0.819463 9.2801 0.82522 9.26152 0.831824 9.24328L0.834026 9.23697C2.74121 3.84671 7.74016 0 13.607 0C19.4739 0 24.4728 3.84671 26.38 9.23697L26.3822 9.24328C26.3886 9.26152 26.3946 9.28028 26.401 9.29834C26.5343 9.70023 26.6069 10.1314 26.6069 10.5801C26.6069 11.9108 25.9544 13.0651 24.9949 13.8008L22.1269 16C22.2564 15.3814 22.3252 14.7393 22.3252 14.0805C22.3252 9.09494 18.4219 5.0536 13.607 5.0536Z" fill="url(#paint0_linear_66_4061)"/>
    <path fill-rule="evenodd" clip-rule="evenodd" d="M13.4999 28.3107C6.04388 28.3107 0 21.8261 0 13.8268C0 13.3148 0.025051 12.809 0.0734679 12.3107C0.390363 13.0623 0.873354 13.7161 1.47218 14.2181C1.47974 14.2242 1.48714 14.2303 1.49454 14.2366C1.54581 14.2788 1.59759 14.3201 1.65038 14.3605L11.9487 22.56C11.9533 22.5636 11.9573 22.5667 11.9615 22.5701C12.3915 22.9107 12.9226 23.1121 13.4977 23.1127C13.4992 23.1127 13.5006 23.1127 13.5019 23.1127C14.0771 23.1123 14.6085 22.9107 15.0383 22.5701C15.0425 22.5667 15.0467 22.5636 15.0511 22.56L25.3496 14.3605C25.4022 14.3201 25.4542 14.279 25.5053 14.2366C25.5129 14.2305 25.5203 14.2244 25.5277 14.2181C26.1266 13.7161 26.6096 13.0623 26.9265 12.3107C26.9748 12.8092 27 13.3148 27 13.8268C26.9997 21.8261 20.9556 28.3107 13.4999 28.3107Z" fill="url(#paint1_linear_66_4061)"/>
    <defs>
    <linearGradient id="paint0_linear_66_4061" x1="13.6069" y1="13.8959" x2="13.6069" y2="-0.0932133" gradientUnits="userSpaceOnUse">
    <stop stop-color="#1E43A0"/>
    <stop offset="1" stop-color="#0090FF"/>
    </linearGradient>
    <linearGradient id="paint1_linear_66_4061" x1="13.4999" y1="28.3106" x2="13.4999" y2="14.1574" gradientUnits="userSpaceOnUse">
    <stop stop-color="#00E5FF"/>
    <stop offset="1" stop-color="#0090FF"/>
    </linearGradient>
    </defs>
</svg>